<svg width="27" height="28" viewBox="0 0 27 28" fill="none" xmlns="http://www.w3.org/2000/svg">
<path d="M12 3.34961C13.4322 3.34961 14.8057 3.91894 15.8184 4.93164C16.8311 5.94434 17.4004 7.31783 17.4004 8.75V9.34961H22.6504V24.5C22.6504 25.3354 22.3183 26.1368 21.7275 26.7275C21.1368 27.3183 20.3354 27.6504 19.5 27.6504H4.5C3.66457 27.6504 2.8632 27.3183 2.27246 26.7275C1.68172 26.1368 1.34961 25.3354 1.34961 24.5V9.34961H6.59961V8.75C6.59961 7.31783 7.16894 5.94434 8.18164 4.93164C9.19434 3.91894 10.5678 3.34961 12 3.34961ZM3.15039 24.5C3.15039 24.858 3.29175 25.2019 3.54492 25.4551C3.7981 25.7083 4.14196 25.8496 4.5 25.8496H19.5C19.858 25.8496 20.2019 25.7083 20.4551 25.4551C20.7083 25.2019 20.8496 24.858 20.8496 24.5V11.1504H3.15039V24.5ZM12 5.15039C11.0452 5.15039 10.1292 5.52897 9.4541 6.2041C8.77897 6.87923 8.40039 7.79522 8.40039 8.75V9.34961H15.5996V8.75C15.5996 7.79522 15.221 6.87923 14.5459 6.2041C13.8708 5.52897 12.9548 5.15039 12 5.15039Z" fill="black" stroke="black" stroke-width="0.3"/>
<rect x="12.1428" y="1.28571" width="13.8571" height="13.8571" rx="6.92857" fill="#FF0000"/>
<rect x="12.1428" y="1.28571" width="13.8571" height="13.8571" rx="6.92857" stroke="white"/>
<path d="M19.083 12.8236C18.5622 12.8236 18.096 12.726 17.6846 12.5307C17.2731 12.3328 16.9463 12.0619 16.7041 11.7182C16.4645 11.3744 16.3369 10.9812 16.3213 10.5385H17.7275C17.7536 10.8666 17.8955 11.1348 18.1533 11.3432C18.4111 11.5489 18.721 11.6518 19.083 11.6518C19.3669 11.6518 19.6195 11.5867 19.8408 11.4565C20.0622 11.3262 20.2367 11.1453 20.3643 10.9135C20.4919 10.6817 20.5544 10.4174 20.5518 10.1205C20.5544 9.81843 20.4906 9.5502 20.3604 9.31583C20.2301 9.08145 20.0518 8.89786 19.8252 8.76504C19.5986 8.62963 19.3382 8.56192 19.0439 8.56192C18.8044 8.55932 18.5687 8.60359 18.3369 8.69473C18.1051 8.78588 17.9215 8.90567 17.7861 9.05411L16.4775 8.83926L16.8955 4.71426H21.5361V5.9252H18.0947L17.8643 8.04629H17.9111C18.0596 7.87182 18.2692 7.72728 18.54 7.6127C18.8109 7.49551 19.1077 7.43692 19.4307 7.43692C19.915 7.43692 20.3473 7.5515 20.7275 7.78067C21.1077 8.00723 21.4072 8.31973 21.626 8.71817C21.8447 9.11661 21.9541 9.57234 21.9541 10.0854C21.9541 10.614 21.8317 11.0854 21.5869 11.4994C21.3447 11.9109 21.0075 12.2351 20.5752 12.4721C20.1455 12.7065 19.6481 12.8236 19.083 12.8236Z" fill="white"/>
</svg>
