<svg width="29" height="28" viewBox="0 0 29 28" fill="none" xmlns="http://www.w3.org/2000/svg">
<path d="M20.1355 4.39355C21.9283 4.39564 23.6471 5.10923 24.9148 6.37695C26.1825 7.64467 26.8961 9.36343 26.8982 11.1562C26.8982 14.4364 24.8548 17.8106 20.9109 21.1855V21.1865C19.1018 22.7281 17.1468 24.0901 15.075 25.2549L15.072 25.2568C14.9474 25.3238 14.8082 25.3594 14.6667 25.3594C14.5253 25.3594 14.3861 25.3238 14.2615 25.2568L14.2585 25.2549C12.1867 24.0901 10.2317 22.7281 8.42261 21.1865V21.1855C4.47868 17.8106 2.4353 14.4364 2.4353 11.1562C2.43739 9.36343 3.15098 7.64467 4.4187 6.37695C5.68642 5.10923 7.40517 4.39564 9.198 4.39355L9.63647 4.40625C11.7095 4.52403 13.5159 5.47741 14.6667 7.02441C15.898 5.36927 17.88 4.39355 20.1355 4.39355ZM19.738 6.11914C17.9027 6.24245 16.3761 7.21923 15.6111 8.74023L15.4587 9.07422C15.3942 9.23126 15.2843 9.36543 15.1433 9.45996C15.0023 9.55448 14.8365 9.60547 14.6667 9.60547C14.497 9.60547 14.3312 9.55448 14.1902 9.45996C14.0844 9.38906 13.9961 9.29597 13.9314 9.1875L13.8748 9.07422C13.1275 7.24905 11.343 6.10645 9.198 6.10645C7.8591 6.10789 6.57541 6.64017 5.62866 7.58691C4.68192 8.53366 4.14964 9.81735 4.14819 11.1562L4.15405 11.4326C4.28355 14.2889 6.39576 17.0201 8.76929 19.2012C11.1231 21.3642 13.688 22.9428 14.6667 23.5137C15.6455 22.9428 18.2104 21.3642 20.5642 19.2012C23.0142 16.9498 25.1853 14.1124 25.1853 11.1562L25.1794 10.9062C25.1164 9.65841 24.5925 8.47457 23.7048 7.58691C22.7581 6.64017 21.4744 6.10789 20.1355 6.10645L19.738 6.11914Z" fill="black" stroke="#181818" stroke-width="0.4"/>
</svg>
