<svg width="29" height="28" viewBox="0 0 29 28" fill="none" xmlns="http://www.w3.org/2000/svg">
<path d="M25 13.125V23.625C25 23.8571 24.9078 24.0796 24.7437 24.2437C24.5796 24.4078 24.3571 24.5 24.125 24.5H18C17.7679 24.5 17.5454 24.4078 17.3813 24.2437C17.2172 24.0796 17.125 23.8571 17.125 23.625V17.9375C17.125 17.8215 17.0789 17.7102 16.9969 17.6282C16.9148 17.5461 16.8035 17.5 16.6875 17.5H12.3125C12.1965 17.5 12.0852 17.5461 12.0031 17.6282C11.9211 17.7102 11.875 17.8215 11.875 17.9375V23.625C11.875 23.8571 11.7828 24.0796 11.6187 24.2437C11.4546 24.4078 11.2321 24.5 11 24.5H4.875C4.64294 24.5 4.42038 24.4078 4.25628 24.2437C4.09219 24.0796 4 23.8571 4 23.625V13.125C4.00022 12.661 4.18473 12.216 4.51297 11.888L13.263 3.13798C13.5911 2.81004 14.0361 2.62582 14.5 2.62582C14.9639 2.62582 15.4089 2.81004 15.737 3.13798L24.487 11.888C24.8153 12.216 24.9998 12.661 25 13.125Z" fill="black"/>
</svg>
