<svg width="20" height="20" viewBox="0 0 20 20" fill="none" xmlns="http://www.w3.org/2000/svg">
<path d="M16.6665 5.83334H9.1665M11.6665 14.1667H4.1665" stroke="black" stroke-width="1.5" stroke-linecap="round" stroke-linejoin="round"/>
<path d="M14.1665 16.6667C15.5472 16.6667 16.6665 15.5474 16.6665 14.1667C16.6665 12.786 15.5472 11.6667 14.1665 11.6667C12.7858 11.6667 11.6665 12.786 11.6665 14.1667C11.6665 15.5474 12.7858 16.6667 14.1665 16.6667Z" stroke="black" stroke-width="1.5" stroke-linecap="round" stroke-linejoin="round"/>
<path d="M5.83325 8.33334C7.21396 8.33334 8.33325 7.21406 8.33325 5.83334C8.33325 4.45263 7.21396 3.33334 5.83325 3.33334C4.45254 3.33334 3.33325 4.45263 3.33325 5.83334C3.33325 7.21406 4.45254 8.33334 5.83325 8.33334Z" stroke="black" stroke-width="1.5" stroke-linecap="round" stroke-linejoin="round"/>
</svg>
